<?xml version="1.0" encoding="UTF-8" standalone="no"?>
<!DOCTYPE svg PUBLIC "-//W3C//DTD SVG 1.1//EN" "http://www.w3.org/Graphics/SVG/1.1/DTD/svg11.dtd">
<svg width="100%" height="100%" viewBox="0 0 142 128" version="1.1" xmlns="http://www.w3.org/2000/svg" xmlns:xlink="http://www.w3.org/1999/xlink" xml:space="preserve" xmlns:serif="http://www.serif.com/" style="fill-rule:evenodd;clip-rule:evenodd;stroke-linejoin:round;stroke-miterlimit:2;">
    <g id="MSOLogo_orange_frei-Bild" serif:id="MSOLogo_orange_frei Bild">
        <g transform="matrix(1.06053,0,0,1.04882,120.255,67.8381)">
            <path d="M0,-7.406L-49.758,-57.164C-51.802,-59.209 -55.119,-59.209 -57.164,-57.164L-106.922,-7.406C-108.967,-5.361 -108.967,-2.045 -106.922,-0.001L-57.164,49.759C-55.119,51.803 -51.802,51.803 -49.758,49.759L0,-0.001C2.045,-2.045 2.045,-5.361 0,-7.406" style="fill:white;fill-rule:nonzero;"/>
        </g>
        <g transform="matrix(1,0,0,1,117.017,67.5769)">
            <path d="M0,-7.406L-49.758,-57.164C-51.802,-59.209 -55.119,-59.209 -57.164,-57.164L-106.922,-7.406C-108.967,-5.361 -108.967,-2.045 -106.922,-0.001L-57.164,49.759C-55.119,51.803 -51.802,51.803 -49.758,49.759L0,-0.001C2.045,-2.045 2.045,-5.361 0,-7.406" style="fill:rgb(255,115,0);fill-rule:nonzero;"/>
        </g>
        <g>
            <path d="M51.587,45.358C51.467,43.738 51.347,43.438 50.328,43.438L44.573,43.438C43.492,43.438 43.432,43.558 43.132,44.398L38.03,59.518C36.71,63.478 36.47,64.378 36.109,66.718L35.989,66.718C35.629,64.378 34.969,61.918 34.189,59.518L29.327,44.398C29.027,43.498 28.967,43.438 28.006,43.438L22.251,43.438C21.233,43.438 20.993,43.618 20.993,44.698L19.313,83.27C19.253,84.35 19.553,84.53 20.573,84.53L24.948,84.53C25.966,84.53 26.146,84.35 26.206,83.27L26.806,62.938C26.866,60.774 26.926,55.492 26.926,53.33L27.046,53.33C27.406,55.492 28.486,60.594 29.147,62.756L32.628,74.451C32.868,75.291 32.928,75.47 33.949,75.47L37.67,75.47C38.69,75.47 38.751,75.291 38.991,74.451L42.652,62.756C43.312,60.594 44.393,55.492 44.753,53.33L44.873,53.33C44.873,55.492 44.933,60.774 44.993,62.936L45.473,83.27C45.473,84.35 45.713,84.53 46.732,84.53L52.007,84.53C53.026,84.53 53.266,84.35 53.266,83.27L51.587,45.358Z" style="fill:white;fill-rule:nonzero;"/>
            <path d="M81.926,46.913C82.166,46.433 82.226,46.193 82.226,46.014C82.226,44.995 76.352,42.358 70.65,42.358C63.687,42.358 57.453,45.954 57.453,54.592C57.453,59.573 59.491,61.974 62.668,63.894C68.788,67.615 74.913,68.155 74.913,73.497C74.913,77.217 72.872,79.018 69.509,79.018C64.347,79.018 59.911,76.377 59.551,76.377C59.311,76.377 59.012,76.617 58.892,76.977L57.513,80.936C57.393,81.295 57.213,81.715 57.213,81.895C57.213,82.853 63.627,85.49 69.749,85.49C77.311,85.49 82.706,80.456 82.706,72.836C82.706,68.275 80.608,65.094 77.551,62.814C72.271,58.913 65.246,58.073 65.246,53.512C65.246,49.911 68.128,48.83 70.89,48.83C75.213,48.83 78.929,51.471 79.289,51.471C79.529,51.471 79.768,51.231 79.948,50.871L81.926,46.913Z" style="fill:white;fill-rule:nonzero;"/>
        </g>
        <g transform="matrix(1,0,0,1,133.232,63.874)">
            <path d="M0,0C0,13.565 -10.997,24.563 -24.563,24.563C-38.128,24.563 -49.125,13.565 -49.125,0C-49.125,-13.565 -38.128,-24.563 -24.563,-24.563C-10.997,-24.563 0,-13.565 0,0" style="fill:white;fill-rule:nonzero;"/>
        </g>
        <g transform="matrix(1,0,0,1,130.294,63.874)">
            <path d="M0,0C0,11.943 -9.682,21.625 -21.625,21.625C-33.568,21.625 -43.25,11.943 -43.25,0C-43.25,-11.943 -33.568,-21.625 -21.625,-21.625C-9.682,-21.625 0,-11.943 0,0" style="fill:rgb(255,115,0);fill-rule:nonzero;"/>
        </g>
        <g transform="matrix(1,0,0,1,122.669,63.874)">
            <path d="M0,0C0,7.731 -6.269,14 -14,14C-21.731,14 -28,7.731 -28,0C-28,-7.732 -21.731,-14 -14,-14C-6.269,-14 0,-7.732 0,0" style="fill:white;fill-rule:nonzero;"/>
        </g>
    </g>
</svg>
